PathFileType	4	(X/Y/Z)	C:\Users\T490\OneDrive\Desktop\110_Internship_Tasks\Sprint GSG Position Analysis\results\sports2d_output\sprint_video_Sports2D\sprint_video_Sports2D_px_person00.trc
DataRate	CameraRate	NumFrames	NumMarkers	Units	OrigDataRate	OrigDataStartFrame	OrigNumFrames
25.0	25.0	5	22	m	25.0	69	559
Frame#	Time	Hip			RHip			RKnee			RAnkle			RBigToe			RSmallToe			RHeel			LHip			LKnee			LAnkle			LBigToe			LSmallToe			LHeel			Neck			Head			Nose			RShoulder			RElbow			RWrist			LShoulder			LElbow			LWrist			
		X1	Y1	Z1	X2	Y2	Z2	X3	Y3	Z3	X4	Y4	Z4	X5	Y5	Z5	X6	Y6	Z6	X7	Y7	Z7	X8	Y8	Z8	X9	Y9	Z9	X10	Y10	Z10	X11	Y11	Z11	X12	Y12	Z12	X13	Y13	Z13	X14	Y14	Z14	X15	Y15	Z15	X16	Y16	Z16	X17	Y17	Z17	X18	Y18	Z18	X19	Y19	Z19	X20	Y20	Z20	X21	Y21	Z21	X22	Y22	Z22
69	2.76494623655914	1033.8736456493618	421.53593973160184	0.0	1036.1145267668387	419.38059079658706	0.0	1030.7117010060335	530.1671435706087	0.0	1058.4132114648219	631.2529024439646	0.0	1026.2051172593974	659.3780270742718	0.0	1031.657884971525	654.0727381470233	0.0	1071.292089752201	646.0086582937199	0.0	1032.196950231564	420.75489105621574	0.0	1001.4146633206419	529.1858316200362	0.0	1001.9450411559369	647.1686454344634	0.0	963.5104998890029	680.1431738757794	0.0	972.008512542171	683.9474499854497	0.0	1009.9837736656407	662.0848783487618	0.0	1041.468023941759	276.3972132798531	0.0	1033.0804354607326	205.96387770137906	0.0	1015.5504425196809	245.49625968503952	0.0	1038.028956546186	297.45106993665246	0.0	1042.0732627486527	362.19767116998787	0.0	1001.9971290518881	375.5925883163484	0.0	1050.6945012660558	297.4159018399049	0.0	1068.92558454593	365.87742965094094	0.0	1007.8808357318057	370.09717472111953	0.0
70	2.8050179211469533	1029.7146202783324	409.2206470227945	0.0	1032.3007787047718	406.65365504771864	0.0	1026.6891826437359	516.6789277877158	0.0	1048.704165050611	619.2855321508034	0.0	1017.2552029751846	646.5771693345355	0.0	1022.4342317779306	642.1215123629484	0.0	1061.7349152819538	635.1107296589704	0.0	1027.807014493903	408.1731246541899	0.0	999.9958099498108	516.0813766972926	0.0	1002.7696004249026	637.2860669661627	0.0	965.5522403663012	674.0549689394368	0.0	973.8183982274819	677.3273919428023	0.0	1010.3527204876428	650.7611283130118	0.0	1036.2677871583523	262.80510425871734	0.0	1024.9049023829416	192.41041987974646	0.0	1009.1222924808771	231.93986606849285	0.0	1032.8507208431085	282.7350916956121	0.0	1038.671223250134	347.32374759989693	0.0	998.1566175700534	358.0486544054843	0.0	1045.648250232907	281.2060362803784	0.0	1068.2959776662778	348.8895931583403	0.0	1006.6226279130676	351.21263985766984	0.0
71	2.845089605734767	1025.8737872655402	401.0018617663482	0.0	1030.2627274208407	398.9719804587184	0.0	1021.4251674749282	509.1888544490215	0.0	1038.6863121763495	613.3204728157184	0.0	1008.963275779045	640.2866171972013	0.0	1014.0348904502354	635.4867864754938	0.0	1051.6020478787245	628.3459670944443	0.0	1023.3271892131667	400.4879985464031	0.0	996.7283165380361	507.09220760607656	0.0	1005.9672246248626	629.7121839532855	0.0	967.2860831291237	668.6491671097506	0.0	977.8424905846101	671.4988316327742	0.0	1014.6320314077161	642.4414521735882	0.0	1030.1705225888816	253.40000280368696	0.0	1016.6746754130465	184.2443090024485	0.0	1001.1342250871874	222.9187826655682	0.0	1028.246723582806	272.23245626478047	0.0	1036.5966185329596	337.9822460441153	0.0	994.585940970167	346.6038957693789	0.0	1038.3826252216995	269.2750200771942	0.0	1064.875264357539	336.99005718253306	0.0	1003.4129007430981	339.0671702672748	0.0
72	2.8851612903225807	1022.7154125127082	396.2050210335228	0.0	1028.8967817332568	394.42606255195926	0.0	1016.673821122738	506.159927074151	0.0	1028.0775571598542	612.1736214159679	0.0	997.336629008262	637.7466024680849	0.0	1001.659106617129	632.9941038663272	0.0	1040.482099604651	626.0226941246043	0.0	1020.1285536697098	395.8827001313099	0.0	995.6039624576367	503.218621318578	0.0	1005.7400483291733	624.6993784157503	0.0	963.1963980313847	662.2966865465175	0.0	976.8615575640391	665.1009214613846	0.0	1014.6849202393953	638.3755216669122	0.0	1023.8257841195343	248.1616799546215	0.0	1009.0104357283979	179.67716836782566	0.0	992.7045113202075	217.92723044688017	0.0	1023.5121071071968	266.0672114260328	0.0	1034.2546785320317	332.76864839344967	0.0	991.64115746768	341.1911136990981	0.0	1030.6316997917797	262.5328923409354	0.0	1058.458422498579	329.90427958668033	0.0	998.1719316368188	333.4504595176207	0.0
73	2.9252329749103945	1020.201902231375	394.6316808101988	0.0	1025.6381383062776	392.93473969675506	0.0	1012.4209299338645	505.7929267782748	0.0	1017.666749150224	613.4979265031197	0.0	983.680714218106	636.3454108928752	0.0	986.4689963791608	633.3428648435263	0.0	1029.5927522657526	627.7897657975419	0.0	1018.6926422678293	393.9780328179832	0.0	996.1577032322966	503.27096457528137	0.0	1000.9278868177473	622.2647993397949	0.0	954.131517228722	655.7861597278657	0.0	969.5390402101004	658.5961518802783	0.0	1010.1315916177895	637.4507748784248	0.0	1017.2744274882318	246.85802331174395	0.0	1001.8025402863975	177.85920574842555	0.0	984.8491098891996	216.61257872712625	0.0	1017.5919435919409	264.3312490744008	0.0	1029.2910873568967	330.93885815827707	0.0	987.5333115362979	340.5832267877057	0.0	1024.0238242680718	261.01154458517124	0.0	1050.646343277307	327.17873085879535	0.0	992.1145298293761	333.856399120701	0.0
